<?xml version="1.0" encoding="UTF-8"?>
<svg xmlns="http://www.w3.org/2000/svg" viewBox="706 2261 13952 6046" preserveAspectRatio="xMidYMid slice">
  <!-- Classic Greek Meander Pattern - From ancient-greek-meander-1.svg -->
  <g fill="currentColor">
    <!-- Top bar -->
    <polygon points="706 2726 14658 2726 14658 2261 706 2261"/>
    <!-- First meander key unit -->
    <polygon points="2566 3657 2566 5982 1171 5982 1171 5517 2101 5517 2101 4122 706 4122 706 4587 1636 4587 1636 5052 706 5052 706 6447 3031 6447 3031 3191 706 3191 706 3657"/>
    <!-- Main meander pattern -->
    <polygon points="3962 7377 3962 3657 7217 3657 7217 5982 5822 5982 5822 5517 6752 5517 6752 4122 4427 4122 4427 7377 8612 7377 8612 3657 11867 3657 11867 5982 10472 5982 10472 5517 11402 5517 11402 4122 9077 4122 9077 7377 13262 7377 13262 3657 14658 3657 14658 3191 12797 3191 12797 6912 9542 6912 9542 4587 10937 4587 10937 5052 10007 5052 10007 6447 12332 6447 12332 3191 8147 3191 8147 6912 4892 6912 4892 4587 6287 4587 6287 5052 5357 5052 5357 6447 7682 6447 7682 3191 3496 3191 3496 6912 706 6912 706 7377"/>
    <!-- End cap -->
    <polygon points="14192 6912 14192 4587 14658 4587 14658 4122 13727 4122 13727 7377 14658 7377 14658 6912"/>
    <!-- Bottom bar -->
    <polygon points="14658 7842 706 7842 706 8307 14658 8307"/>
  </g>
</svg>
